<svg id="visual" viewBox="0 0 900 600" width="900" height="600" xmlns="http://www.w3.org/2000/svg" xmlns:xlink="http://www.w3.org/1999/xlink" version="1.1"><rect x="0" y="0" width="900" height="600" fill="#931C1C"></rect><path d="M0 154L113 116L225 153L338 152L450 147L563 149L675 129L788 123L900 119L900 0L788 0L675 0L563 0L450 0L338 0L225 0L113 0L0 0Z" fill="#f5730a"></path><path d="M0 132L113 121L225 100L338 103L450 109L563 115L675 130L788 103L900 136L900 0L788 0L675 0L563 0L450 0L338 0L225 0L113 0L0 0Z" fill="#c74c08"></path><path d="M0 108L113 95L225 100L338 109L450 99L563 102L675 101L788 85L900 108L900 0L788 0L675 0L563 0L450 0L338 0L225 0L113 0L0 0Z" fill="#992503"></path><path d="M0 77L113 78L225 76L338 90L450 69L563 73L675 85L788 77L900 88L900 0L788 0L675 0L563 0L450 0L338 0L225 0L113 0L0 0Z" fill="#871400"></path><path d="M0 57L113 60L225 50L338 47L450 71L563 66L675 70L788 74L900 69L900 0L788 0L675 0L563 0L450 0L338 0L225 0L113 0L0 0Z" fill="#992503"></path><path d="M0 54L113 31L225 32L338 50L450 33L563 31L675 30L788 47L900 28L900 0L788 0L675 0L563 0L450 0L338 0L225 0L113 0L0 0Z" fill="#c74c08"></path><path d="M0 20L113 19L225 18L338 17L450 11L563 24L675 28L788 29L900 17L900 0L788 0L675 0L563 0L450 0L338 0L225 0L113 0L0 0Z" fill="#f5730a"></path></svg>